<?xml version="1.0" encoding="UTF-8"?>
<svg width="39px" height="24px" viewBox="0 0 39 24" version="1.1" xmlns="http://www.w3.org/2000/svg" xmlns:xlink="http://www.w3.org/1999/xlink">
    <title>content-separator</title>
    <g id="Page-1" stroke="none" stroke-width="1" fill="none" fill-rule="evenodd">
        <g id="Narrow-Design" transform="translate(-343.000000, -339.000000)" fill-rule="nonzero">
            <g id="content-separator" transform="translate(343.882201, 339.650736)">
                <path d="M5.7931199,22.5255322 C5.293206,22.4373121 4.5874452,22.2020585 4.4992251,21.1140106 C4.44689114,20.0449026 4.57132685,18.9415811 4.70629721,17.8750826 L4.76045317,17.4506155 C5.13796126,14.4954503 5.4242901,11.9032341 1.9702489,11.2333594 C5.4242901,10.5844183 5.13796126,7.9982338 4.76045317,5.04480652 L4.70629721,4.62055961 C4.68830116,4.47842425 4.6704924,4.33562566 4.65326495,4.19233338 L4.60372062,3.76114498 C4.51753143,2.96853921 4.46084686,2.16612743 4.4992251,1.3821149 C4.5874452,0.3234737 5.293206,0.0882201 5.7931199,2.13162821e-14 L5.4402395,2.13162821e-14 C5.0285457,2.13162821e-14 4.705072,0.0588134 4.3521916,0.294067 C3.822871,0.7351675 3.234737,1.470335 3.0582968,3.1465169 C2.5289762,7.3222683 5.1461725,11.0863259 -1.73194792e-14,11.0863259 L-1.73194792e-14,11.4097996 C5.1461725,11.4097996 2.5289762,15.2032639 3.0582968,19.3790153 C3.234737,21.0551972 3.822871,21.7903647 4.3521916,22.2314652 C4.6756653,22.4961255 5.0285457,22.5255322 5.4402395,22.5255322 L5.7931199,22.5255322 Z" id="{" fill="#000000"></path>
                <path d="M19.4832948,14.1723032 L21.3359391,13.0797181 L19.1032652,11.0845627 L22.0009909,11.8446219 L22.0484946,9.7544591 L19.1032652,10.8470442 C21.0732716,8.87703782 21.305037,8.57130466 21.3323036,8.52663397 L21.3354847,8.5207649 L21.3359391,8.5193629 L19.4832948,7.4742815 L18.7707393,10.8470442 C18.1531912,7.4742815 18.1531912,7.4267778 18.0581838,7.4267778 L16.2055395,8.5193629 L18.4382134,10.7995405 L15.5404877,9.7544591 L15.492984,11.8446219 L18.4382134,11.0845627 L16.2530432,13.0322144 L16.2055395,13.0797181 L18.0581838,14.1247995 L18.7707393,11.1320664 L19.4832948,14.1723032 Z" id="*" fill="#964646"></path>
                <path d="M32.4390341,22.5255322 C32.8507279,22.5255322 33.2036083,22.4961255 33.527082,22.2314652 C34.0564026,21.7903647 34.6445366,21.0551972 34.8209768,19.3790153 C35.3502974,15.2032639 32.7331011,11.4097996 37.8792736,11.4097996 L37.8792736,11.0863259 C32.7331011,11.0863259 35.3502974,7.3222683 34.8209768,3.1465169 C34.6445366,1.470335 34.0564026,0.7351675 33.527082,0.294067 C33.1742016,0.0588134 32.8507279,2.13162821e-14 32.4390341,2.13162821e-14 L32.0861537,2.13162821e-14 C32.5860676,0.0882201 33.2918284,0.3234737 33.3800485,1.3821149 C33.4323825,2.45122289 33.3079468,3.55454437 33.1729764,4.62055961 L33.1188204,5.04480652 C32.7413123,7.9982338 32.4549835,10.5844183 35.9090247,11.2333594 C32.4549835,11.9032341 32.7413123,14.4954503 33.1188204,17.4506155 L33.1729764,17.8750826 C33.3079468,18.9415811 33.4323825,20.0449026 33.3800485,21.1140106 C33.2918284,22.2020585 32.5860676,22.4373121 32.0861537,22.5255322 L32.4390341,22.5255322 Z" id="}" fill="#000000"></path>
            </g>
        </g>
    </g>
</svg>