<?xml version="1.0" encoding="UTF-8"?>
<svg width="130px" height="239px" viewBox="0 0 130 239" version="1.1" xmlns="http://www.w3.org/2000/svg" xmlns:xlink="http://www.w3.org/1999/xlink">
    <title>dandelion</title>
    <defs>
        <polygon id="path-1" points="0.532933333 0.049 3.3916 0.049 3.3916 1.86905 0.532933333 1.86905"></polygon>
    </defs>
    <g id="Page-1" stroke="none" stroke-width="1" fill="none" fill-rule="evenodd" opacity="0.186568859">
        <g id="Narrow-Design" transform="translate(-163.000000, -831.000000)">
            <g id="dandelion" transform="translate(228.000000, 950.500000) scale(-1, 1) translate(-228.000000, -950.500000) translate(163.000000, 831.000000)">
                <path d="M81.4589525,32.352141 C82.132518,31.6971422 82.8066913,31.0427521 83.4802567,30.3877533 C83.5501665,30.4376696 83.6206842,30.4875859 83.6905939,30.5375021 C82.3544055,32.6796404 81.018217,34.8211699 79.6090792,37.080794 C81.5075854,37.4910814 82.6753825,36.5822401 83.7939388,35.829235 C86.8182962,33.7917991 89.5690937,31.4025145 92.2007406,28.8744383 C92.9040936,28.1981338 93.9618588,27.7671494 94.4013785,26.9709241 C94.9442431,25.9890347 96.4044454,25.8465907 96.4050533,24.3198834 C96.4056612,23.6307955 97.4208726,22.9404901 97.978935,22.2532283 C98.1892722,21.9926898 98.4306129,21.7540657 98.6202811,21.4801349 C99.0628404,20.841572 99.6579853,20.8616603 100.09021,21.3309949 C100.321216,21.5805762 100.399029,22.3396687 100.204497,22.547856 C99.5060075,23.2923389 98.9035677,24.0715196 98.3716455,24.9493154 C97.9996039,25.5635289 97.268287,25.9470319 96.7971559,26.5161991 C96.0220693,27.4548684 95.4117267,28.4775431 94.3168789,29.187328 C93.3515162,29.8131076 92.7132096,30.9210051 91.8244436,31.6940985 C90.701024,32.6705094 89.4973602,33.5598711 88.2797144,34.4187961 C87.0772663,35.2667639 85.8888003,36.1938672 84.5623384,36.7940798 C82.4085096,37.7692732 80.1470805,38.5064512 77.7415765,39.4159012 C78.7829281,39.3513753 79.7434276,39.4061615 80.6504308,39.2125838 C82.6291813,38.7889043 84.5653779,38.1643422 86.5477758,37.7625771 C88.4341238,37.3802916 90.1466092,36.5956323 91.9131986,35.8925434 C93.701065,35.181541 95.6384775,34.8528241 97.4403258,34.1716497 C98.3777246,33.817366 99.1370055,33.0174883 100.025164,32.5024985 C101.41424,31.6965335 102.872011,31.0080542 104.248929,30.1838271 C105.600316,29.3760359 106.865986,28.4264094 108.208254,27.602791 C109.782744,26.6379461 111.399179,25.742497 113.051481,24.7855657 C113.315923,25.2902069 113.453918,25.5525717 113.564558,25.7625853 C113.177319,26.1028681 112.861813,26.4668916 112.472142,26.7085594 C110.751754,27.775063 109.010697,28.8080862 107.275718,29.8508491 C104.786323,31.3465109 102.338265,32.9219169 99.7783516,34.2848744 C99.01056,34.6933356 98.3594873,35.2655464 97.6202675,35.6100904 C96.434233,36.1640392 95.0943971,36.3868362 93.8159602,36.7405112 C93.7618561,36.7551208 93.6445293,36.6272865 93.618997,36.646766 C92.2372152,37.7120521 90.5599887,37.978678 88.9465928,38.4437515 C87.8906513,38.748119 86.9082671,39.3410268 85.842599,39.5705199 C83.7641512,40.0185488 81.6504445,40.3022193 79.2315665,40.7076368 C80.6200353,41.0150479 81.7464944,41.304197 82.8875435,41.5056883 C83.8522983,41.6755253 84.831643,41.791185 85.808556,41.8435362 C86.6699659,41.8891913 87.5380629,41.7802277 88.4019045,41.7990985 C89.3769938,41.821013 90.3569464,42.0097208 91.3247408,41.9506735 C93.9442294,41.7899675 96.5637181,41.5769103 99.174696,41.304197 C100.699337,41.1447085 102.204525,40.7995558 103.726734,40.5998907 C104.383886,40.5140591 105.106692,40.739291 105.72129,40.557888 C108.003996,39.8840184 110.280015,39.1693636 112.508009,38.334788 C114.424144,37.6164808 116.269762,36.7125094 118.147599,35.8949783 C118.531191,35.7275762 118.922686,35.5772187 119.311749,35.4219913 C120.831527,34.8163 122.348873,34.2039127 123.873514,33.6110048 C124.385375,33.4119485 124.913041,33.1501925 125.441924,33.128278 C125.948314,33.107581 126.465038,33.3614235 126.977507,33.4941277 C126.98541,33.6548338 126.992705,33.8149311 127,33.9750283 C126.306981,34.3761847 125.653477,34.8881308 124.911826,35.1541479 C123.594482,35.6265262 122.424254,36.352747 120.919674,36.5493684 C119.410839,36.7459898 118.03696,37.9141521 116.579189,38.6050663 C115.511697,39.1115338 114.4284,39.6106964 113.30802,39.9753286 C111.750552,40.4811874 110.156609,40.8780826 108.568745,41.2835 C107.674508,41.5117756 106.753523,41.6359576 105.85807,41.8581458 C104.783283,42.1235543 103.738892,42.5934976 102.653163,42.7103747 C99.7199922,43.0269169 96.7728395,43.226582 93.8287263,43.4244208 C92.1922298,43.5346018 90.5502621,43.6027802 88.9119418,43.5857356 C87.9860933,43.5753871 87.0371442,43.1523163 86.1447308,43.2698021 C84.216437,43.5230359 82.4243153,42.8850817 80.5914635,42.6050636 C79.5233638,42.4419226 78.5403716,41.7248329 77.622426,41.304197 C77.3707508,43.3702434 77.2649743,45.4606392 76.8357891,47.4816392 C76.2035616,50.4583531 75.3980795,53.4021952 74.5591622,56.3289928 C73.7968418,58.9891645 72.9494138,61.6298567 72.032684,64.2413296 C70.7420888,67.9174799 69.4229219,71.5869341 67.9858202,75.2070808 C66.668477,78.52286 65.2034114,81.7802007 63.7559752,85.04302 C62.5322503,87.801198 61.3261548,90.5727682 59.9547075,93.257898 C58.7765759,95.5656122 57.3394742,97.7400134 56.0853537,100.010595 C55.1674081,101.672441 54.4470335,103.447512 53.4859261,105.082574 C50.828747,109.604866 48.1654887,114.127767 45.3611951,118.559966 C43.2547834,121.88792 40.906423,125.060646 38.7027455,128.327727 C35.9513402,132.407468 33.2449202,136.517647 30.5044573,140.604693 C29.3792139,142.281149 28.2132406,143.930212 27.0727995,145.596319 C26.973102,145.741807 26.9202138,145.920166 26.9360195,146.217838 C34.8303522,140.369721 43.6134509,136.422684 52.9777125,133.400924 C52.4257293,133.347355 51.8737461,133.293178 51.3223707,133.239609 C51.3120363,133.130037 51.3029176,133.020464 51.293191,132.910892 C52.3515641,132.737403 53.411761,132.412338 54.4683104,132.423904 C56.199641,132.442166 57.8525511,132.265024 59.5164036,131.733599 C60.9437787,131.278265 62.4568693,131.072513 63.9444276,130.833888 C65.4593419,130.590394 66.8769905,129.972528 68.4891705,130.041316 C69.8679128,130.100363 71.2642844,129.661465 72.6570086,129.472148 C74.8005029,129.181173 76.9640583,129.008292 79.0887074,128.618093 C82.1002987,128.064144 85.1988212,128.278419 88.172722,127.180261 C90.0615016,126.482651 92.231744,126.58431 94.2414979,126.164283 C96.2409173,125.746691 98.2093333,125.15987 100.17167,124.584007 C102.163795,123.999012 104.131603,123.336709 106.110353,122.708494 C106.151691,122.823545 106.193637,122.938596 106.236191,123.053038 C104.824621,123.636206 103.436152,124.285118 101.996011,124.783672 C100.357691,125.349795 98.6877592,125.843479 97.0038457,126.256202 C95.0585303,126.732841 93.0749166,127.051209 91.1235222,127.506543 C89.4055656,127.9077 87.7259074,128.480519 86.0006559,128.837238 C83.1933227,129.417362 80.3665364,129.911046 77.5397501,130.387686 C75.6193591,130.711533 73.6868099,130.964158 71.7542607,131.209478 C70.8399625,131.326355 69.907427,131.304441 68.9943446,131.429231 C67.9037522,131.578371 66.8295734,131.837084 65.7420206,132.011791 C64.6003636,132.19502 63.4501959,132.327724 62.3061074,132.501213 C62.1054967,132.53165 61.9182601,132.655223 61.523118,132.820191 C62.4051969,133.004028 63.0811939,133.173866 63.7663097,133.281612 C65.0465703,133.481885 66.3323022,133.6432 67.6156024,133.827038 C68.7286875,133.985918 69.9293118,133.939654 70.9329729,134.362725 C72.8108101,135.15408 74.7275536,134.751098 76.6151174,134.836929 C78.2485743,134.911195 79.8984449,134.62509 81.5416284,134.505778 C82.7234075,134.419946 83.9459166,134.506386 85.0814944,134.231847 C87.1088777,133.743033 89.0791174,133.022291 91.084008,132.433644 C91.773987,132.230935 92.5168543,132.19989 93.1964988,131.971005 C94.3831412,131.571066 95.5679598,131.140691 96.6986743,130.606222 C97.835468,130.069317 98.8980965,129.377186 100.006318,128.776364 C101.020922,128.226677 102.064097,127.728731 103.072622,127.169304 C104.383886,126.441866 105.760804,125.792954 106.954741,124.902984 C109.266019,123.180873 111.463618,121.307187 113.721399,119.512636 C114.356058,119.007995 115.035703,118.561183 115.694678,118.088196 C115.669146,117.987146 115.643006,117.886705 115.617474,117.785655 C115.264277,117.822788 114.860624,117.761914 114.567003,117.913489 C113.194948,118.619622 111.909824,119.527246 110.486097,120.092152 C108.684856,120.806806 106.794253,121.315709 104.914592,121.807567 C103.45135,122.190461 101.951026,122.444303 100.455565,122.68171 C100.022732,122.749888 99.5485613,122.561181 99.1388292,122.6671 C97.9272625,122.77789 96.7175196,122.967816 95.5047371,122.97999 C93.8487874,122.997035 92.1660896,123.037211 90.5405355,122.779108 C88.377588,122.43639 86.2267988,123.074344 84.052301,122.591009 C83.0832908,122.375516 81.9604791,122.84059 80.9100089,123.010427 C79.4777705,123.241746 78.0449241,123.467587 76.6187648,123.734213 C76.0540155,123.839524 75.5154063,124.077539 74.9536965,124.204765 C72.5615666,124.74593 70.3214144,125.664511 68.1730568,126.836935 C67.1390001,127.401232 66.0666451,127.892481 64.8745315,128.485389 C64.7906398,128.415384 64.5383567,128.204153 64.2368328,127.951528 C64.3991451,127.863262 64.4915476,127.813954 64.5827342,127.762821 C66.4751613,126.698143 68.3001102,125.480673 70.2782527,124.613835 C72.1025937,123.814566 73.7056552,122.48935 75.8072036,122.28238 C76.6558474,122.199592 77.4485634,121.610945 78.3008547,121.492851 C81.2224751,121.085607 84.1568617,120.751412 87.0942878,120.467741 C87.7806194,120.401389 88.4967386,120.715496 89.2006996,120.725845 C90.0067896,120.737411 90.8134876,120.57427 91.6214013,120.542007 C93.8220393,120.453131 96.051857,120.163374 98.2129807,120.423912 C99.1990124,120.542616 100.027595,120.153025 100.962562,120.272337 C101.999051,120.404433 103.103017,120.37217 104.1237,120.158504 C105.256846,119.921097 106.321298,119.370801 107.431952,119.006169 C109.602194,118.29334 111.802832,117.668778 113.954837,116.905424 C115.881307,116.221815 117.759144,115.400023 119.898991,114.821116 C119.42786,115.409762 119.000499,116.041021 118.477087,116.579142 C117.173118,117.919577 115.884955,119.285578 114.479464,120.514614 C113.107409,121.713822 111.606477,122.766933 110.145059,123.863265 C108.990028,124.730712 107.83682,125.605464 106.633764,126.404733 C105.121282,127.410363 103.585698,128.389209 102.011209,129.292572 C100.428816,130.200195 98.8032623,131.038423 97.1625105,131.835866 C96.1010978,132.351465 94.9874048,132.763578 93.8810067,133.179953 C91.9715581,133.898869 90.0779152,134.681702 88.1228733,135.251478 C86.8292386,135.627676 85.425572,135.609414 84.0985023,135.893085 C82.412157,136.253456 80.7507362,136.398335 79.0218372,136.199887 C78.0996361,136.093358 77.130018,136.478079 76.1847164,136.462252 C74.8734523,136.440337 73.5585407,136.294241 72.2557873,136.12136 C69.8636574,135.8036 67.3718301,135.740292 65.1255988,134.972677 C63.4356061,134.395597 61.652603,134.597088 60.0319122,133.859301 C59.5322093,133.631634 58.8185218,133.685203 58.2537724,133.821559 C56.0707639,134.349333 53.8439857,134.618394 51.6877253,135.374442 C50.3174938,135.854125 48.8974136,136.288153 47.5387324,136.816535 C45.1757822,137.736334 42.8742311,138.81623 40.5617375,139.860819 C37.9501517,141.039938 35.3343105,142.214797 32.7622389,143.476096 C31.8740808,143.91195 31.114192,144.606516 30.2892568,145.174466 C28.5968324,146.34202 26.7542541,147.343997 25.2521059,148.71913 C24.0824851,149.789286 23.2235068,151.257554 22.4210642,152.660688 C20.311005,156.355101 18.2994274,160.105517 16.2623175,163.841323 C15.1334267,165.912848 13.9230758,167.949066 12.944339,170.091813 C11.6166613,172.998523 10.464062,175.987411 9.25918232,178.950124 C8.48348784,180.8579 7.69441931,182.762631 7.0111273,184.705104 C6.35093592,186.580617 5.77281252,188.488392 5.2427141,190.405298 C4.49984681,193.092863 3.73995801,195.781645 3.16426626,198.50756 C2.58188748,201.266956 2.08947954,204.058614 1.78795567,206.860621 C1.47974477,209.725937 1.34539643,212.620471 1.33202239,215.50344 C1.3216879,217.802632 1.63293835,220.101824 1.75756012,222.404059 C2.0262568,227.384729 3.7891988,231.942327 5.68709706,236.463402 C5.92782983,237.03683 6.23725655,237.58043 6.48467635,238.150815 C6.56978389,238.34561 6.56188105,238.58119 6.59592406,238.797291 C6.45610453,238.86547 6.31567708,238.933039 6.17524963,239 C5.64575911,238.178208 4.9898231,237.409984 4.61231035,236.523058 C3.77460894,234.555017 2.99526699,232.554106 2.34541009,230.517887 C1.70953514,228.526715 1.10162411,226.500845 0.771528413,224.44393 C0.151459155,220.584551 -0.197481781,216.694734 0.118631959,212.766568 C0.310123936,210.389458 0.111337027,207.956344 0.525932354,205.626107 C1.28095786,201.382007 2.32595694,197.187823 3.32414686,192.989987 C3.82141809,190.898374 4.40440477,188.819544 5.08708887,186.780891 C6.01476111,184.011147 6.99167415,181.251751 8.10111179,178.550185 C9.31693387,175.591125 10.6646726,172.683807 12.0330804,169.79049 C13.3972328,166.905695 14.8294712,164.051337 16.286026,161.210979 C17.2598995,159.312335 18.2848375,157.436823 19.3663112,155.597226 C20.2325845,154.124696 21.5213559,152.826873 22.0611809,151.258163 C22.5377831,149.871465 23.5608974,149.02715 24.253916,147.888207 C25.2356923,146.275059 26.3414825,144.737394 27.4053268,143.175381 C28.9852876,140.8561 30.5847015,138.549604 32.1573674,136.225454 C33.5598181,134.152103 34.9312654,132.058663 36.3270292,129.981051 C37.1063711,128.821411 37.9130691,127.680641 38.6984901,126.524654 C40.086959,124.479913 41.5204132,122.463174 42.8414039,120.375213 C44.4924902,117.763132 45.8998043,114.983648 47.6840232,112.469573 C50.2998644,108.7849 52.2275503,104.723421 54.4677025,100.834213 C55.7187834,98.6604206 56.9996519,96.500629 58.1631937,94.279964 C59.2410199,92.2224399 60.1899691,90.0949112 61.1802561,87.991732 C62.5596063,85.0618908 64.0483804,82.1758784 65.2666341,79.1802938 C66.8563215,75.2728242 68.2180422,71.2728269 69.6940502,67.3190934 C70.4016587,65.4265365 71.2764426,63.5869395 71.8497028,61.6560323 C73.0612695,57.5793344 74.2211637,53.4819395 75.2090191,49.3468031 C75.7932217,46.9027323 76.0157171,44.3710037 76.3804637,41.8757991 C76.4169384,41.628044 76.3148093,41.3608094 76.2959641,41.2305401 C73.9135607,41.478904 71.6138333,41.8368401 69.3043792,41.9159756 C67.939619,41.9628482 66.5438552,41.6426537 65.1894294,41.3565482 C63.5353035,41.0077431 61.9000228,40.5560618 60.2769003,40.0788136 C59.5626049,39.8694088 58.8872157,39.5139076 58.2160819,39.1809296 C57.1054284,38.6300244 55.9893038,38.0852067 54.9199883,37.4606446 C53.9126797,36.8713892 53.0068922,36.0995133 51.9789147,35.5553042 C49.9861823,34.4997579 48.52598,32.970007 47.2323453,31.1334536 C46.1089257,29.5379594 44.6383889,28.1877853 43.3307722,26.7201253 C43.1392803,26.5052419 43.0012845,26.2422684 42.8395801,26.0012094 C42.8967238,25.8879847 42.9538674,25.77476 43.011619,25.6615353 C43.4043295,25.7771949 43.9277409,25.7717163 44.1690816,26.0298199 C45.3763929,27.3215554 46.4870464,28.702775 47.6779441,30.0115551 C48.3271931,30.7256012 49.0305461,31.4019057 49.7746292,32.016728 C51.1333104,33.1386265 52.5412324,34.2002603 53.9254458,35.2911133 C54.0409489,35.3824235 54.1230169,35.5881759 54.2373042,35.6015681 C56.1674217,35.8268 57.5552826,37.3048085 59.4136667,37.769882 C62.3079311,38.4930591 65.1201276,39.5443443 68.0119604,40.2809136 C69.1682072,40.5749326 70.4429966,40.4160527 71.6642899,40.4379672 C72.7494111,40.4574467 73.8351402,40.4422283 74.9105348,40.1762112 C73.8387877,39.7166163 72.7627851,39.2655437 71.6971171,38.7931654 C71.2563816,38.5977615 70.8320597,38.3633985 70.4077378,38.1314705 C67.3152943,36.4367524 64.351728,34.5003666 62.0805724,31.8036708 C60.975998,30.4924557 60.4562341,28.6680771 59.7565285,27.0397112 C59.0884343,25.4856109 58.5176058,23.8888991 57.9346191,22.2994922 C57.8106053,21.9610356 57.6561958,21.466134 57.8081736,21.2390759 C57.9729175,20.993147 58.4945052,20.8604428 58.83068,20.903663 C59.0300748,20.9298386 59.2325092,21.3711714 59.3334224,21.6609292 C60.1948323,24.1238708 60.7905852,26.7195166 61.9614218,29.0235783 C62.8039865,30.6811636 64.3827315,31.9722904 65.6757583,33.3875991 C66.2508421,34.0170311 66.9134651,34.5721973 67.5718328,35.1176238 C68.0770069,35.5358247 68.6058895,35.9467208 69.1809733,36.2553494 C71.144526,37.3121133 73.1129419,38.3664422 75.1287749,39.31546 C75.5786291,39.5279085 76.4315282,39.8322759 76.6290993,38.8035139 C75.585924,38.0395515 75.250965,36.9620907 74.8947291,35.7945371 C74.5160006,34.5527178 73.5439508,33.4856054 73.2023048,32.2401338 C72.5870988,30.0018154 71.451521,27.8420238 71.7366313,25.4192588 C71.9190046,23.8742895 72.2491003,22.3469735 72.4618692,20.8044392 C72.5153653,20.4154575 72.340287,19.9996916 72.3366395,19.5954916 C72.3335999,19.2180759 72.3968227,18.8351816 72.4715957,18.4626358 C72.59257,17.8569446 72.7664326,17.2616018 72.8825436,16.6553018 C72.9852806,16.1196151 73.057622,15.5766235 73.1062549,15.0336319 C73.1317871,14.7530051 73.0764672,14.4656822 73.0448559,14 L74.9409304,14 C74.7822656,15.1255509 74.7239061,16.0556979 74.5008028,16.9444509 C74.3433538,17.5708392 74.0886391,18.1144395 74.4813496,18.758481 C74.6114426,18.972147 74.5622018,19.5547063 74.4144794,19.6344506 C73.5986628,20.0782184 73.9317981,20.7953081 73.9172082,21.4076955 C73.8667516,23.5303542 73.6977523,25.6682313 73.8849889,27.7720193 C73.9901575,28.9499214 74.0843837,30.1838271 74.8485279,31.3404235 C75.5318199,32.3746642 75.5853161,33.8191922 75.954926,35.0707512 C76.1567525,35.7525344 76.41937,36.4184904 76.6941458,37.0753154 C76.8607134,37.4709931 77.1032699,37.8344079 77.3701429,38.3195696 C78.0169602,37.2780241 78.7573959,36.2602193 79.2911418,35.1431907 C79.5020869,34.7000317 79.084452,33.980507 79.2491959,33.4862142 C79.6978343,32.1433449 80.1057426,30.7158615 80.8948111,29.5744835 C82.1495395,27.7592359 83.6814753,26.1345223 85.1301273,24.4580663 C86.0395622,23.4061723 86.9994537,22.3968898 87.9636006,21.3943033 C88.1362474,21.2153353 88.4402029,21.162984 88.7684748,21.162984 C86.0109904,24.6845157 83.1969702,28.1147371 80.9878215,31.9637681 C81.1446625,32.0934286 81.3021115,32.2230892 81.4589525,32.352141" id="Fill-1" fill="#8A8187"></path>
                <path d="M97,2.83582886 C96.7704358,3.22368792 96.5414275,3.61214094 96.3118633,4 C95.9472287,3.73212184 95.5775915,3.47196523 95.2201829,3.19458364 C94.9161354,2.95937355 94.5837398,2.74198241 94.341947,2.44499998 C94.155183,2.21572954 93.9534111,1.83796788 94.0095515,1.59325436 C94.0629126,1.36279599 94.4253239,1.11392471 94.6876829,1.05512219 C95.9444495,0.776552663 96.9471947,1.58196902 97,2.83582886" id="Fill-3" fill="#8A8187"></path>
                <path d="M81,6.39864086 C80.8800079,6.49904033 80.5949359,6.94770049 80.2444136,6.98911527 C79.1288509,7.12339957 77.8263915,5.99076799 78.019106,4.94033849 C78.0881924,4.56697794 78.9245008,4.14530015 79.4888271,4.02858576 C80.4153114,3.83657176 80.9410948,4.61027521 81,6.39864086" id="Fill-5" fill="#8A8187"></path>
                <path d="M94.6843823,14 C94.5061126,13.7814142 94.049827,13.4658156 94.0020762,13.0820624 C93.9659978,12.792866 94.4079581,12.2181573 94.7178078,12.1229865 C95.2632283,11.9547491 95.8818666,11.9768533 96.4463873,12.0830762 C96.6750607,12.1266706 96.969524,12.5834903 96.9987051,12.8831248 C97.0220499,13.1176747 96.7249337,13.5425662 96.496791,13.632211 C96.0102632,13.8243946 95.4754541,13.8532528 94.6843823,14" id="Fill-7" fill="#8A8187"></path>
                <path d="M97.6515947,19 C97.368742,18.9259944 96.9593962,18.8741906 96.5992422,18.7058279 C96.3538689,18.5911193 95.9913724,18.3055813 96.0001567,18.1119334 C96.0516909,16.9105766 96.2730539,15.751773 97.3177934,15 C98.0416151,15.7622572 98.1587384,16.5997533 97.8138104,17.5945113 C97.6469097,18.0767808 97.6879029,18.6398397 97.6515947,19" id="Fill-9" fill="#8A8187"></path>
                <path d="M56.8296945,15 C56.4456738,14.5054272 56.0202032,14.2149368 56.0063866,13.8897694 C55.9706259,13.052975 56.0913182,12.1934416 56.2120104,11.3606266 C56.236799,11.1895158 56.5606768,10.9564412 56.6992494,11.0070355 C56.8366028,11.0570612 57.0028086,11.4311174 56.999964,11.6590757 C56.9922429,12.1996949 56.8731762,12.7351978 56.8361964,13.2780909 C56.8057186,13.7124054 56.8296945,14.15411 56.8296945,15" id="Fill-11" fill="#8A8187"></path>
                <path d="M128,29 C128.284456,27.9884353 128.471951,27.2097756 128.738884,26.4550993 C128.808391,26.2573699 129.102777,26.0676349 129.337,26.0020804 C129.440385,25.9733003 129.76748,26.2499084 129.791428,26.4124622 C129.894229,27.1063807 130.144223,27.89037 129.888388,28.4776958 C129.743532,28.8086661 128.720193,28.8209243 128,29" id="Fill-13" fill="#8A8187"></path>
                <path d="M104.000038,20.3093283 C103.993842,19.1490632 104.737968,17.8193564 105.121579,18.0202927 C105.49674,18.2168197 105.923163,18.7163258 105.985689,19.1446539 C106.114686,20.0227265 105.345775,21.0985858 104.718253,20.9927636 C104.394352,20.9385927 104.130162,20.442236 104.000038,20.3093283" id="Fill-15" fill="#8A8187"></path>
                <path d="M88,12.1750147 C87.8897268,12.8526812 87.8278087,13.543901 87.6455926,14.2015321 C87.5630352,14.5014732 87.2422405,14.7360047 87.0293602,15 C86.7062067,14.7183265 86.2285528,14.4920448 86.1005888,14.1390689 C85.9555235,13.7383618 85.9513957,13.0777843 86.1943505,12.7949322 C86.532836,12.4012964 87.1573242,12.2533883 87.6597453,12 C87.772967,12.0583382 87.8867783,12.1166765 88,12.1750147" id="Fill-17" fill="#8A8187"></path>
                <path d="M80.777979,19.3137874 C81.0352744,20.3999446 80.4765906,20.8713217 79.909607,20.9961989 C79.6460867,21.0545207 79.0889592,20.4287624 79.0163355,20.0074734 C78.8747192,19.1854795 79.687586,17.8365313 80.1523777,18.0162996 C80.4869654,18.1459797 80.7209175,18.7305697 81,19.1127488 C80.9258201,19.1793043 80.8521589,19.2465459 80.777979,19.3137874" id="Fill-19" fill="#8A8187"></path>
                <path d="M106,9.81115361 C106.19659,9.61727401 106.509347,9.308637 106.822104,9 C107.14252,9.31709281 107.535061,9.59432253 107.761012,9.96275418 C107.946113,10.2659553 108.052706,10.7038454 107.973559,11.0348299 C107.889945,11.3851419 107.545912,11.6804912 107.315493,12 C106.979759,11.7650493 106.539346,11.5911013 106.338926,11.2794443 C106.125741,10.9472519 106.14106,10.4839944 106,9.81115361" id="Fill-21" fill="#8A8187"></path>
                <path d="M120.987035,25 C121.045893,26.2497424 120.945721,27.3751288 119.801379,27.9708004 C119.925321,28.244933 120.045867,28.510821 120.267718,29 C119.718185,28.8612161 119.355414,28.7698385 119,28.6798351 C119.230906,26.4290622 119.87665,25.238406 120.987035,25" id="Fill-23" fill="#8A8187"></path>
                <path d="M100,23.4712014 C101.303602,23.2666722 102.151483,23.1333361 103,23 C102.844915,23.5043846 102.813771,24.1028888 102.495339,24.484194 C102.232839,24.7985293 101.509534,25.1014014 101.204449,24.967462 C100.773517,24.7798261 100.539619,24.1855452 100,23.4712014" id="Fill-25" fill="#8A8187"></path>
                <path d="M53.1846271,27 C52.9728977,25.7749441 52.7347709,24.8696356 53.7681201,24.2872846 C54.3384145,23.9656111 54.7783716,23.893058 55,24.1774918 C54.9153083,25.1200401 54.8586638,25.7576084 54.7987196,26.4311323 C54.6381353,26.1794437 54.4148571,25.8282354 54.1580321,25.4230937 C53.8880085,25.8603385 53.5932372,26.3380332 53.1846271,27" id="Fill-27" fill="#8A8187"></path>
                <path d="M55,131.661075 C57.2763759,130.773625 59.5521119,129.886812 61.8291278,129 C61.8860852,129.158632 61.9436826,129.317265 62,129.47526 C59.7044249,130.31684 57.4088499,131.15842 55.1126349,132 C55.0748766,131.887237 55.0377583,131.773837 55,131.661075" id="Fill-29" fill="#8A8187"></path>
                <path d="M64,12.6900336 C65.5547075,11.688644 66.2587949,11.7552502 66.9768667,13.0337828 C67.0796221,13.2159928 66.8090531,14.0068455 66.7701398,13.9999553 C65.7900113,13.8231043 64.7405685,13.8131517 64,12.6900336" id="Fill-31" fill="#8A8187"></path>
                <path d="M65,3.48305378 C66.5418898,2.78190496 67.0084162,2.82681841 68,3.73090947 C66.9166029,4.25074103 65.973795,3.93426757 65,3.48305378" id="Fill-33" fill="#8A8187"></path>
                <g id="Group-37" transform="translate(85.000000, 0.000000)">
                    <mask id="mask-2" fill="white">
                        <use xlink:href="#path-1"></use>
                    </mask>
                    <g id="Clip-36"></g>
                    <path d="M2.2996,1.86905 C1.75026667,1.80605 1.20093333,1.74305 0.532933333,1.66655 C1.01493333,0.56555 1.76893333,-0.00195 3.3916,0.05255 C2.71626667,0.43355 2.1896,0.73055 1.59893333,1.06355 C1.91826667,1.26605 2.13226667,1.40205 2.3456,1.53755 C2.33093333,1.64805 2.31493333,1.75855 2.2996,1.86905" id="Fill-35" fill="#8A8187" mask="url(#mask-2)"></path>
                </g>
                <path d="M62.5994108,18 C61.8434525,17.5989571 61.8061212,16.3110112 62.4671044,16.0036104 C62.5543937,15.9629178 63.0149957,16.2771824 62.999624,16.3943576 C62.9282554,16.9263032 62.7481869,17.4464824 62.5994108,18" id="Fill-38" fill="#8A8187"></path>
                <path d="M85,22.1895158 C84.0965648,23.3534584 83.3943738,23.2405386 83,22 C83.6318637,22.0592237 84.222072,22.1152888 85,22.1895158" id="Fill-40" fill="#8A8187"></path>
            </g>
        </g>
    </g>
</svg>